<?xml version="1.0" standalone="no"?>
<!DOCTYPE svg PUBLIC "-//W3C//DTD SVG 20010904//EN"
 "http://www.w3.org/TR/2001/REC-SVG-20010904/DTD/svg10.dtd">
<svg version="1.0" xmlns="http://www.w3.org/2000/svg"
 width="832.000000pt" height="832.000000pt" viewBox="0 0 832.000000 832.000000"
 preserveAspectRatio="xMidYMid meet">
<metadata>
Created by potrace 1.11, written by Peter Selinger 2001-2013
</metadata>
<g transform="translate(0.000000,832.000000) scale(0.100000,-0.100000)"
fill="#000000" stroke="none">
<path d="M3999 7696 c-2 -2 -29 -6 -60 -9 -30 -4 -62 -8 -70 -11 -8 -3 -30 -7
-49 -10 -37 -6 -89 -16 -105 -21 -5 -1 -13 -3 -17 -4 -17 -3 -185 -63 -218
-77 -54 -23 -194 -95 -200 -103 -3 -3 -25 -17 -50 -31 -126 -68 -346 -269
-456 -415 -134 -178 -250 -405 -290 -564 -2 -9 -10 -43 -19 -76 -8 -33 -17
-71 -20 -85 -3 -14 -7 -36 -10 -50 -25 -124 -25 -453 0 -570 3 -14 7 -36 9
-50 23 -153 138 -446 226 -576 16 -25 30 -47 30 -50 0 -3 28 -42 62 -87 60
-80 299 -327 316 -327 5 0 18 -8 30 -18 11 -9 30 -24 42 -32 12 -8 28 -21 36
-28 7 -6 15 -12 18 -12 3 0 29 -15 58 -34 78 -49 181 -99 283 -136 114 -41
118 -43 132 -46 6 -1 27 -7 45 -13 90 -29 294 -53 438 -53 128 1 290 15 312
28 3 2 28 7 54 10 27 3 52 8 56 10 5 3 20 8 35 10 15 3 31 8 37 12 6 3 16 7
21 9 138 30 448 190 545 281 13 12 28 22 32 22 15 0 232 221 286 290 91 119
242 381 242 423 0 8 3 17 7 21 8 8 32 72 39 105 3 14 7 28 10 33 3 4 7 17 10
28 2 11 6 30 10 43 21 86 25 110 43 246 4 36 7 126 6 200 -2 139 -9 205 -28
296 -3 11 -8 39 -12 62 -6 40 -43 161 -80 261 -21 58 -90 196 -131 260 -19 29
-34 55 -34 58 0 3 -6 11 -12 19 -7 7 -22 25 -33 41 -86 121 -216 256 -341 352
-43 34 -83 65 -89 70 -41 32 -241 141 -259 142 -5 0 -17 6 -25 13 -15 12 -190
76 -222 80 -8 2 -19 6 -25 10 -7 4 -28 8 -48 9 -20 2 -36 5 -36 8 0 3 -8 6
-17 7 -10 1 -31 4 -48 8 -16 3 -43 8 -60 11 -36 5 -401 14 -406 10z"/>
<path d="M1965 4111 c-2 -2 -28 -5 -57 -6 -29 -2 -69 -6 -88 -9 -19 -4 -48 -8
-65 -10 -169 -23 -436 -126 -603 -232 -29 -19 -55 -34 -58 -34 -3 0 -11 -6
-18 -12 -7 -7 -25 -22 -41 -33 -58 -42 -136 -108 -194 -166 -58 -57 -141 -150
-141 -158 0 -5 -7 -14 -16 -22 -8 -7 -43 -56 -77 -108 -85 -132 -86 -133 -96
-156 -5 -11 -22 -49 -38 -85 -32 -72 -57 -131 -59 -142 -1 -5 -2 -9 -4 -10 -1
-2 -3 -10 -5 -18 -2 -8 -13 -49 -25 -90 -11 -41 -22 -86 -25 -100 -3 -14 -7
-34 -9 -46 -9 -45 -19 -132 -22 -189 -1 -33 -3 -60 -4 -60 -1 0 -2 -15 -3 -33
-1 -17 2 -32 6 -32 4 0 3 -8 -2 -19 -6 -10 -8 -21 -5 -24 3 -3 7 -39 9 -81 11
-212 85 -474 193 -681 21 -38 39 -72 43 -75 3 -3 16 -23 29 -45 57 -96 186
-253 269 -329 19 -17 49 -45 66 -61 40 -38 149 -118 235 -171 56 -36 251 -134
264 -134 3 0 17 -5 33 -12 15 -6 33 -12 38 -13 6 -2 39 -12 75 -24 36 -12 79
-24 95 -26 17 -3 41 -8 55 -10 14 -3 36 -8 50 -10 55 -11 88 -15 157 -19 40
-2 77 -7 82 -10 5 -4 12 -3 15 2 3 4 30 5 61 2 30 -3 58 -4 60 -1 3 2 26 5 52
6 90 4 225 28 346 60 9 3 25 7 35 9 9 2 66 23 125 46 285 111 574 326 742 555
17 22 37 48 46 58 9 9 22 30 30 45 8 15 17 29 20 32 3 3 14 21 24 40 10 19 21
37 24 40 11 8 88 170 102 215 7 22 16 45 20 50 7 10 47 139 55 179 19 89 27
135 40 246 8 64 7 323 -1 360 -3 14 -8 43 -10 65 -4 31 -22 125 -30 155 -13
49 -27 98 -32 110 -3 8 -7 20 -8 25 0 6 -5 19 -9 30 -79 203 -140 316 -261
479 -74 101 -237 264 -325 326 -19 14 -40 30 -47 37 -7 6 -29 21 -50 34 -21
13 -40 25 -43 28 -16 18 -210 116 -286 144 -86 33 -215 72 -269 82 -50 8 -99
17 -118 20 -68 14 -343 26 -352 16z"/>
<path d="M6217 4114 c-2 -2 -135 -12 -187 -15 -50 -3 -239 -46 -329 -76 -103
-34 -293 -120 -299 -135 -2 -5 -8 -8 -13 -8 -17 0 -156 -91 -194 -127 -8 -7
-16 -13 -20 -13 -8 0 -80 -66 -161 -145 -101 -100 -197 -224 -268 -346 -41
-69 -116 -226 -116 -241 0 -8 -4 -18 -9 -23 -14 -15 -75 -223 -86 -295 -2 -14
-6 -41 -9 -60 -19 -124 -25 -345 -12 -445 12 -88 23 -153 40 -233 10 -45 59
-197 68 -206 4 -6 8 -16 8 -23 0 -20 112 -246 130 -263 3 -3 18 -26 33 -52 15
-26 33 -53 40 -60 6 -7 25 -31 41 -53 97 -133 297 -313 459 -413 101 -63 318
-166 337 -160 3 1 14 -4 26 -10 11 -6 32 -13 45 -16 13 -3 56 -14 94 -25 39
-10 88 -22 110 -25 22 -3 51 -8 65 -10 69 -14 256 -20 365 -12 86 6 179 17
186 22 4 2 24 6 45 10 51 7 207 52 253 72 20 9 41 16 47 18 6 1 42 17 80 35
38 18 71 33 74 34 3 0 23 12 45 26 22 14 54 33 70 42 17 8 63 40 103 71 40 31
72 54 72 51 0 -2 20 15 44 38 24 23 61 58 82 78 54 50 119 122 163 183 72 97
111 156 111 165 0 5 6 16 13 23 6 7 21 31 32 53 11 22 26 48 34 58 8 9 11 17
7 17 -3 0 1 15 11 33 9 17 18 34 18 37 1 3 6 16 12 30 64 155 113 376 116 522
1 43 5 78 8 78 7 0 3 55 -5 69 -4 5 -2 12 4 16 6 4 7 11 4 17 -4 6 -8 36 -9
67 -4 91 -31 261 -52 326 -4 11 -8 25 -9 30 -7 39 -63 185 -98 260 -117 247
-314 494 -511 640 -22 16 -41 33 -43 37 -2 4 -8 8 -13 8 -6 0 -15 5 -22 11
-16 14 -146 98 -152 98 -3 1 -29 13 -58 28 -28 15 -55 26 -59 25 -5 -1 -8 2
-8 8 0 6 -3 9 -7 8 -5 -1 -24 5 -43 14 -19 8 -53 21 -75 28 -22 7 -47 15 -55
18 -19 7 -14 5 -81 26 -31 9 -72 18 -91 20 -19 2 -40 6 -47 10 -6 4 -15 4 -21
1 -5 -3 -10 -3 -10 2 0 4 -12 9 -27 9 -16 1 -59 5 -98 9 -65 6 -194 12 -198 9z"/>
</g>
</svg>
